PathFileType	4	(X/Y/Z)	Gait_media_markers.trc
DataRate	CameraRate	NumFrames	NumMarkers	Units	OrigDataRate	OrigDataStartFrame	OrigNumFrames
100	100	7	38	m	100	1	92
Frame#	Time	RASI			RPSI			LPSI			LASI			RTROCH			RTHI			RTHI2			RTHI3			RTHI4			RKNE			RKNEM			RTIB			RTIB2			RTIB3			RTIB4			RANK			RANKM			RHEE			RTOE			RTOEL			RTOEM			LTROCH			LTHI			LTHI2			LTHI3			LTHI4			LKNE			LKNEM			LTIB			LTIB2			LTIB3			LTIB4			LANK			LANKM			LHEE			LTOE			LTOEL			LTOEM
		X1	Y1	Z1	X2	Y2	Z2	X3	Y3	Z3	X4	Y4	Z4	X5	Y5	Z5	X6	Y6	Z6	X7	Y7	Z7	X8	Y8	Z8	X9	Y9	Z9	X10	Y10	Z10	X11	Y11	Z11	X12	Y12	Z12	X13	Y13	Z13	X14	Y14	Z14	X15	Y15	Z15	X16	Y16	Z16	X17	Y17	Z17	X18	Y18	Z18	X19	Y19	Z19	X20	Y20	Z20	X21	Y21	Z21	X22	Y22	Z22	X23	Y23	Z23	X24	Y24	Z24	X25	Y25	Z25	X26	Y26	Z26	X27	Y27	Z27	X28	Y28	Z28	X29	Y29	Z29	X30	Y30	Z30	X31	Y31	Z31	X32	Y32	Z32	X33	Y33	Z33	X34	Y34	Z34	X35	Y35	Z35	X36	Y36	Z36	X37	Y37	Z37	X38	Y38	Z38

1	0.000000	-0.330708	0.961698	-0.775000	-0.287033	1.008503	-0.963034	-0.189964	0.996914	-0.967693	-0.106616	0.976015	-0.788720	-0.394900	0.889834	-0.832520	-0.401946	0.769393	-0.856245	-0.375560	0.770057	-0.790787	-0.358731	0.688911	-0.788596	-0.382385	0.682409	-0.849568	-0.344000	0.534501	-0.866233	-0.236841	0.545567	-0.895772	-0.371624	0.403929	-0.913564	-0.325270	0.392534	-0.866027	-0.321404	0.307113	-0.882605	-0.368895	0.323465	-0.930781	-0.316190	0.111727	-0.992992	-0.238676	0.118680	-0.979366	-0.286473	0.060357	-1.063141	-0.268352	0.056053	-0.823399	-0.335370	0.040301	-0.868204	-0.220408	0.029410	-0.850674	-0.055996	0.903370	-0.862538	-0.045829	0.707046	-0.753923	-0.063929	0.727391	-0.697523	-0.074094	0.648222	-0.674096	-0.056293	0.622785	-0.730398	-0.073124	0.555911	-0.682488	-0.182918	0.567048	-0.684022	-0.042538	0.330634	-0.684395	-0.066096	0.344476	-0.626265	-0.070580	0.256189	-0.619966	-0.047405	0.247464	-0.676637	-0.063246	0.113050	-0.652798	-0.141545	0.139080	-0.628286	-0.107892	0.054568	-0.700151	-0.084295	0.108005	-0.472842	-0.031870	0.080570	-0.513198	-0.135162	0.088882	-0.489212
2	0.010000	-0.330904	0.960358	-0.764913	-0.285471	1.007177	-0.952579	-0.188303	0.995175	-0.955843	-0.106549	0.974032	-0.776224	-0.395165	0.888832	-0.823277	-0.401833	0.768760	-0.847158	-0.376370	0.768826	-0.783019	-0.359554	0.687566	-0.781875	-0.383083	0.681857	-0.842938	-0.344824	0.534086	-0.862012	-0.237330	0.545449	-0.890615	-0.372212	0.403901	-0.911035	-0.326968	0.392509	-0.862886	-0.322432	0.307155	-0.880629	-0.369311	0.323566	-0.928938	-0.316129	0.112138	-0.992687	-0.239095	0.118439	-0.978366	-0.286230	0.060553	-1.063005	-0.267958	0.056345	-0.823768	-0.335379	0.040308	-0.868230	-0.220518	0.029485	-0.850580	-0.055793	0.901192	-0.850286	-0.045196	0.703554	-0.744557	-0.064199	0.723341	-0.688269	-0.074183	0.643971	-0.665708	-0.051154	0.622084	-0.721309	-0.075874	0.550245	-0.673461	-0.184068	0.559201	-0.681541	-0.043101	0.328090	-0.663030	-0.069082	0.344568	-0.606587	-0.072767	0.257543	-0.594951	-0.048650	0.246063	-0.650968	-0.064839	0.112595	-0.619024	-0.143549	0.140499	-0.597141	-0.109059	0.051771	-0.663765	-0.090059	0.116782	-0.439243	-0.035956	0.086797	-0.476922	-0.140483	0.097769	-0.455439
3	0.020000	-0.331157	0.958789	-0.754818	-0.283679	1.005590	-0.942040	-0.186354	0.993187	-0.943703	-0.106608	0.971748	-0.763594	-0.395323	0.887686	-0.814042	-0.402414	0.768241	-0.839553	-0.377139	0.767452	-0.775250	-0.360469	0.686147	-0.774972	-0.383767	0.681198	-0.836207	-0.345528	0.533584	-0.857388	-0.237704	0.546344	-0.886050	-0.372645	0.403848	-0.908359	-0.328099	0.392226	-0.859492	-0.323129	0.307189	-0.879105	-0.369519	0.323392	-0.926707	-0.315561	0.112030	-0.992110	-0.239040	0.119027	-0.977879	-0.285950	0.060832	-1.062933	-0.269542	0.056502	-0.824116	-0.335389	0.040284	-0.868271	-0.220188	0.029484	-0.850692	-0.055610	0.898736	-0.837638	-0.044094	0.699900	-0.735092	-0.063424	0.720276	-0.678585	-0.073834	0.639604	-0.657558	-0.054702	0.615977	-0.714860	-0.075080	0.547948	-0.665522	-0.184367	0.555012	-0.676002	-0.043885	0.326500	-0.642709	-0.070919	0.345857	-0.587894	-0.074746	0.259717	-0.571359	-0.049447	0.245114	-0.626267	-0.066666	0.113238	-0.586768	-0.145573	0.143212	-0.567937	-0.110034	0.050242	-0.629210	-0.096271	0.127238	-0.407634	-0.042168	0.095023	-0.442582	-0.146801	0.107426	-0.424487
4	0.030000	-0.331566	0.957075	-0.744780	-0.281720	1.003789	-0.931510	-0.184257	0.991049	-0.931575	-0.106793	0.969249	-0.750743	-0.395682	0.886022	-0.805428	-0.402796	0.767442	-0.831753	-0.377934	0.765889	-0.767398	-0.361401	0.684656	-0.768038	-0.384177	0.680301	-0.829306	-0.346192	0.533016	-0.852542	-0.237933	0.545969	-0.879839	-0.371484	0.402619	-0.903702	-0.329189	0.391904	-0.855869	-0.323884	0.306731	-0.876769	-0.369792	0.323542	-0.924697	-0.315442	0.112617	-0.991763	-0.238890	0.119608	-0.977208	-0.285630	0.061267	-1.062779	-0.268134	0.056150	-0.823619	-0.335463	0.040936	-0.868817	-0.220449	0.029656	-0.850636	-0.055384	0.895964	-0.824656	-0.042594	0.696265	-0.725312	-0.065030	0.714418	-0.669838	-0.073579	0.634716	-0.649350	-0.052528	0.612037	-0.706136	-0.074682	0.544204	-0.656640	-0.186439	0.550407	-0.668638	-0.044865	0.325035	-0.623205	-0.072867	0.347282	-0.570194	-0.077198	0.262068	-0.549123	-0.050727	0.244495	-0.602792	-0.068854	0.114952	-0.556485	-0.148178	0.145764	-0.541381	-0.110880	0.049683	-0.596872	-0.103845	0.137812	-0.379118	-0.048411	0.104486	-0.410465	-0.153919	0.117203	-0.396508
5	0.040000	-0.332133	0.955386	-0.734693	-0.279531	1.001728	-0.920906	-0.182003	0.988806	-0.919492	-0.107204	0.966607	-0.738036	-0.395929	0.884388	-0.796908	-0.403173	0.766554	-0.824190	-0.378933	0.764394	-0.759504	-0.362711	0.682777	-0.762199	-0.386114	0.679843	-0.823928	-0.346655	0.532497	-0.847595	-0.237883	0.545051	-0.872590	-0.371759	0.402531	-0.900360	-0.329987	0.391470	-0.851857	-0.324521	0.306113	-0.874157	-0.369867	0.323583	-0.922157	-0.315280	0.113311	-0.991342	-0.238816	0.120222	-0.976473	-0.285208	0.061708	-1.062573	-0.268297	0.056031	-0.823486	-0.335403	0.040923	-0.868866	-0.220729	0.030382	-0.850960	-0.055251	0.893193	-0.811476	-0.040723	0.692843	-0.714969	-0.065584	0.710074	-0.660424	-0.073340	0.629936	-0.640715	-0.049487	0.608333	-0.696725	-0.074251	0.541005	-0.647201	-0.187504	0.546190	-0.662258	-0.045593	0.324007	-0.605251	-0.074674	0.348714	-0.553867	-0.079726	0.264351	-0.528797	-0.051686	0.244770	-0.581322	-0.071712	0.117064	-0.528623	-0.150897	0.148242	-0.517028	-0.112571	0.049900	-0.566903	-0.111651	0.147633	-0.353190	-0.055694	0.112913	-0.381009	-0.161180	0.126569	-0.371238
6	0.050000	-0.332791	0.953665	-0.724586	-0.277200	0.999487	-0.910211	-0.179637	0.986367	-0.907387	-0.107554	0.963996	-0.725245	-0.395831	0.882888	-0.788059	-0.403410	0.765688	-0.816622	-0.379807	0.762754	-0.751653	-0.363835	0.681221	-0.754767	-0.386155	0.678592	-0.816366	-0.347350	0.531857	-0.842216	-0.237690	0.544255	-0.865052	-0.372952	0.403228	-0.897824	-0.330448	0.390762	-0.847879	-0.324985	0.305472	-0.871160	-0.369790	0.323618	-0.919231	-0.315589	0.114451	-0.991018	-0.239499	0.120164	-0.975597	-0.284880	0.062494	-1.062321	-0.268405	0.055832	-0.823374	-0.335384	0.040884	-0.868893	-0.220782	0.030501	-0.850865	-0.054986	0.890236	-0.798143	-0.038976	0.689787	-0.703763	-0.066193	0.706320	-0.650192	-0.072994	0.625890	-0.631055	-0.046349	0.605115	-0.685851	-0.074066	0.538033	-0.636393	-0.187263	0.546656	-0.650400	-0.046876	0.322541	-0.588732	-0.075619	0.349712	-0.538485	-0.081715	0.266245	-0.510224	-0.053554	0.244669	-0.561951	-0.075306	0.118677	-0.503666	-0.154591	0.151856	-0.495265	-0.116122	0.050548	-0.539947	-0.118494	0.156208	-0.330048	-0.062401	0.119184	-0.355054	-0.167023	0.135556	-0.348435
7	0.060000	-0.333521	0.951843	-0.714498	-0.274857	0.997240	-0.899631	-0.177287	0.983893	-0.895431	-0.107949	0.961415	-0.712677	-0.395690	0.881415	-0.779230	-0.403175	0.764578	-0.808776	-0.380701	0.761250	-0.743708	-0.364818	0.679690	-0.747118	-0.386267	0.677573	-0.809057	-0.346935	0.530845	-0.835695	-0.237323	0.543342	-0.856819	-0.372931	0.402929	-0.892792	-0.330296	0.389664	-0.844336	-0.325302	0.304809	-0.867845	-0.369794	0.323901	-0.916042	-0.315530	0.115261	-0.990313	-0.239574	0.120801	-0.974521	-0.284669	0.063542	-1.061957	-0.269756	0.055967	-0.823491	-0.335381	0.040872	-0.868927	-0.220870	0.030553	-0.850654	-0.054688	0.887500	-0.784921	-0.037874	0.687428	-0.691684	-0.066354	0.703638	-0.638672	-0.073344	0.623131	-0.619826	-0.045495	0.602568	-0.674037	-0.074299	0.536055	-0.625303	-0.185780	0.541707	-0.646391	-0.047907	0.320797	-0.573501	-0.076460	0.349330	-0.523517	-0.083460	0.267396	-0.493135	-0.055888	0.243512	-0.544399	-0.079067	0.119146	-0.481461	-0.157422	0.154481	-0.473812	-0.121265	0.051250	-0.516398	-0.124556	0.162141	-0.309693	-0.068555	0.122717	-0.332262	-0.173331	0.143892	-0.328049
